<?xml version="1.0" standalone="no"?>
<!DOCTYPE svg PUBLIC "-//W3C//DTD SVG 20010904//EN"
 "http://www.w3.org/TR/2001/REC-SVG-20010904/DTD/svg10.dtd">
<svg version="1.0" xmlns="http://www.w3.org/2000/svg"
 width="940.000000pt" height="940.000000pt" viewBox="0 0 940.000000 940.000000"
 preserveAspectRatio="xMidYMid meet">
<metadata>
Created by potrace 1.14, written by Peter Selinger 2001-2017
</metadata>
<g transform="translate(0.000000,940.000000) scale(0.100000,-0.100000)"
fill="#000000" stroke="none">
<path d="M5637 9384 c-209 -45 -713 -255 -1087 -454 -424 -225 -1062 -623
-1395 -872 -398 -296 -712 -610 -731 -730 -9 -52 1 -83 31 -96 60 -28 227 -5
375 51 113 43 174 51 260 33 93 -20 235 -89 316 -155 87 -71 153 -163 239
-336 127 -254 138 -328 138 -960 0 -344 -4 -491 -17 -625 -9 -96 -17 -274 -19
-395 -2 -263 7 -308 78 -384 24 -26 151 -122 282 -214 131 -92 281 -199 333
-238 52 -38 142 -99 200 -135 157 -99 184 -130 143 -166 -10 -9 -67 -44 -128
-78 -136 -77 -155 -94 -155 -135 0 -40 29 -78 86 -111 143 -84 193 -267 126
-459 -16 -44 -54 -120 -85 -170 -106 -166 -146 -310 -172 -630 -29 -356 -66
-700 -96 -910 -23 -165 -32 -278 -42 -523 l-12 -312 -395 346 -395 346 -7 152
c-4 83 -12 291 -18 461 -6 171 -17 400 -25 510 -21 280 -20 1087 0 1325 24
272 68 565 136 903 17 82 28 151 25 154 -16 16 -88 -28 -160 -97 -94 -90 -114
-101 -226 -130 -100 -25 -264 -103 -340 -160 -100 -75 -166 -97 -415 -140 -82
-14 -156 -35 -233 -66 -167 -67 -185 -72 -288 -89 -122 -19 -190 -43 -349
-121 -170 -82 -307 -186 -505 -381 l-155 -152 45 -44 c34 -34 1842 -1620 3503
-3074 106 -93 121 -103 157 -103 45 0 -245 -249 2383 2054 796 698 1447 1273
1447 1277 0 10 -149 219 -241 339 -102 133 -138 162 -384 300 -71 41 -164 95
-206 121 -126 78 -187 105 -378 164 -437 134 -586 208 -826 409 -85 71 -131
96 -182 96 -12 0 -24 -3 -26 -7 -3 -5 8 -51 24 -103 50 -167 64 -287 101 -905
23 -392 26 -745 9 -1020 -8 -120 -38 -340 -101 -747 -50 -317 -90 -579 -90
-582 0 -7 -888 -786 -896 -786 -3 0 -5 359 -3 798 3 819 1 854 -37 973 -8 25
-35 76 -59 114 -81 123 -111 271 -102 499 9 217 41 307 146 411 93 91 83 127
-45 161 -91 23 -216 106 -200 132 3 6 32 25 64 42 31 18 174 126 316 239 143
113 305 241 360 285 159 123 191 159 247 271 30 61 53 123 59 159 5 33 14 191
20 350 6 160 25 478 41 706 61 861 59 1307 -7 1720 -50 320 -186 714 -345
1001 -120 215 -133 323 -62 483 15 33 55 95 89 136 113 140 136 187 114 239
-6 16 -23 33 -36 40 -34 15 -134 13 -217 -5z m13 -110 c0 -88 -569 -513 -1290
-964 -896 -561 -1698 -986 -1753 -931 -48 48 244 325 664 631 613 446 1510
960 2069 1185 161 65 310 103 310 79z m-1045 -1621 c25 -32 70 -107 100 -168
161 -327 170 -579 59 -1585 -46 -422 -136 -1106 -147 -1116 -1 -1 -32 5 -69
14 -59 14 -67 18 -63 36 8 37 35 404 45 621 24 504 2 963 -61 1252 -60 279
-195 569 -323 695 l-47 45 223 132 c123 72 226 131 230 131 4 0 28 -26 53 -57z"/>
</g>
</svg>
