<svg xmlns="http://www.w3.org/2000/svg" xmlns:xlink="http://www.w3.org/1999/xlink" width="519.335" height="149.525" viewBox="0 0 519.335 149.525">
  <defs>
    <radialGradient id="radial-gradient" cx="0.5" cy="0.5" r="0.5" gradientUnits="objectBoundingBox">
      <stop offset="0" stop-color="#fff"/>
      <stop offset="1" stop-color="#757575"/>
    </radialGradient>
  </defs>
  <path id="Path_2" data-name="Path 2" d="M124.8,111.547a2.566,2.566,0,0,0,.455-1.947l-.093-.742-1.02-.093a1.774,1.774,0,0,0-1.389.556,2.566,2.566,0,0,0-.455,1.947l.093.742,1.02.093a1.633,1.633,0,0,0,1.389-.556m-5.009,6.578,1.389.278a4.511,4.511,0,0,0,1.111.093h0a9.563,9.563,0,0,0,6.485-3.058l1.482-1.482h-2.131a9.108,9.108,0,0,0-7.514,2.96ZM62.261,131.939a8.9,8.9,0,0,0-3.06,4.169l-.649,1.76,1.76-.649a9.431,9.431,0,0,0,6.856-10.747,10.246,10.246,0,0,0-10.1-8.425,16.546,16.546,0,0,0-2.131.184l-1.947.371,1.576,1.2a21.121,21.121,0,0,0,4.725,2.5c3.336,1.389,5.651,2.316,5.1,6.485a4.87,4.87,0,0,1-2.127,3.142ZM75.324,126.1a5.041,5.041,0,0,1,4.076-1.76,10.4,10.4,0,0,1,6.578,2.593l2.049,1.947-.556-2.78c-.742-3.614-3.707-4.076-6.3-4.354a11.68,11.68,0,0,1-2.593-.455l-.371-.093-.833.455c-2.593,1.389-3.985,2.316-3.985,3.429a1.446,1.446,0,0,0,.742,1.2l.649.455Zm19.734.927.184-.371-.184-.371c-.278-.556-.371-1.111-.184-1.3.093-.093.556-.556,2.409-.556a29.513,29.513,0,0,1,6.023.833l3.985.742-2.687-2.225a11.943,11.943,0,0,0-7.134-2.316c-3.891,0-6.3,1.947-6.394,5.189v.556l.742.455a3.229,3.229,0,0,0,1.576.556,2.3,2.3,0,0,0,1.667-1.193ZM81.9,131.752c2.78.927,3.985,3.429,5.189,6.207a15.8,15.8,0,0,0,3.532,5.56L92.2,145l-.093-2.131c-.278-5.009-3.707-9.729-6.949-13.712l-.278-.371h-.556a24.32,24.32,0,0,0-17.608,9.729l1.2,1.3a87.168,87.168,0,0,1,13.985-8.06Zm29.464-12.785a6.958,6.958,0,0,0-2.409.455l-.278.184a2.908,2.908,0,0,0-.556,2.78,1.68,1.68,0,0,0,1.482,1.111h.455l.278-.371c1.2-1.482,2.96-.742,4.818.093a7.371,7.371,0,0,0,3.151,1.02h.455l1.667-.278-1.111-1.2a11.28,11.28,0,0,0-7.951-3.791Zm25.664,2.409c3.336-.455,4.688.371,8.58.278l2.817-1.3a37.3,37.3,0,0,1,4.535.277c1.487.094,2.965.185,4.452.185a11.3,11.3,0,0,0,7.412-2.131l1.2-1.111-1.576-.455a44.82,44.82,0,0,0-11.385-1.2,36.454,36.454,0,0,1-15.194-2.5c-2.871-1.389-7.227-4.911-7.043-6.672.093-1.02.649-1.3,2.225-1.76a4.813,4.813,0,0,0,3.8-2.96l.371-1.111h-1.482a10.929,10.929,0,0,0-3.336.556l.649-1.576-1.853.649a19.335,19.335,0,0,0-2.78,1.3,7.261,7.261,0,0,1-5.651,1.3l-1.853-.556.742,1.76A3.434,3.434,0,0,0,125,106.562a7.355,7.355,0,0,0,2.96-.742,6.888,6.888,0,0,0,.093,3.058l.184.371a27.372,27.372,0,0,0,12.979,8.709c-.649,0-1.76.093-1.76.093s-8.154.278-11.118,2.687l-1.947,1.667a4.326,4.326,0,0,0-1.576-.278,5.335,5.335,0,0,0-4.634,2.687l-.093.371c-.093,1.111,0,2.225,0,3.429,0,1.576,0,3.149-.093,4.725a17.223,17.223,0,0,0-18.159-4.54l-.278.184a23.909,23.909,0,0,1-4.262,2.687l-.749.369-.093.278c-.278.556-.649,1.111-1.02,1.76-2.049,3.429-4.725,8.06-1.389,10.656l1.576,1.2-.093-1.947c-.455-9.452,6.485-12.139,12.694-13.343,6.856,1.667,10.841,6.207,14.916,10.929a51.766,51.766,0,0,0,6.671,6.856l1.389,1.111.093-1.76c.184-2.96-1.947-5.009-4.076-7.043a12.468,12.468,0,0,1-3.891-5.287,18.924,18.924,0,0,1,.556-9.543,4.148,4.148,0,0,1,1.853.371,3.452,3.452,0,0,0,2.871,0l.556-.371-.184-.649a4.06,4.06,0,0,0-2.6-2.867l2.5-.093c2.691-.184,5.285-.462,8.156-.927Zm83.38-45.214h-36.5V67.915h24.83L218.2,50.034H184.008v-7.32h27.055l9.358-17.974H169.276v69.22H210.97ZM239.127,24.74H224.588v69.22h14.548ZM266.273,57.63l13.25,31.224a11,11,0,0,0,3.336,4.354,7.569,7.569,0,0,0,4.54,1.76c3.058,0,5.465-2.049,7.134-6.023l13.156-31.224,6.207,36.6h16.03L317.787,32.7a13.858,13.858,0,0,0-3.058-6.3,7.029,7.029,0,0,0-5.374-2.5c-3.058,0-5.745,2.687-7.969,8.06L286.932,66.426l-14.347-34.46c-2.225-5.374-5.009-8.06-8.06-8.06A6.968,6.968,0,0,0,259.15,26.5a12.56,12.56,0,0,0-2.96,6.207L243.954,94.23h16.03ZM350.68,94.044h14.639V42.714H379.4l9.452-17.974H340.684l-9.358,17.974H350.68Zm70.786,0h3.058q29.325,0,29.373-31.5v-37.8H439.258V62.451c0,5.558-1.389,9.358-4.262,11.3-2.049,1.576-5.651,2.316-10.474,2.316-6.207,0-10.285-.556-12.23-1.576-3.707-1.853-5.651-5.838-5.651-12.138V24.74H392.093V62.451c.011,21.123,9.832,31.593,29.373,31.593ZM475.3,55.964l27.517,33.911a10.594,10.594,0,0,0,7.969,4.634q5.838,0,5.838-9.449V24.74H501.984V62.913L474.474,29a9.675,9.675,0,0,0-7.412-4.169,5.353,5.353,0,0,0-4.725,2.5,10.986,10.986,0,0,0-1.667,6.3V93.955h14.639ZM73.1,73.476c15.752,0,18.159,14.176,19.179,17.881S92,102.846,92,102.846H81.627v7.412l-.742.093c-1.111.184-2.225.455-3.336.742l.278-.556a49.13,49.13,0,0,0-5.92-4.725,39.688,39.688,0,0,1-6.207-5.1,15.1,15.1,0,0,0,5.28,1.2,5.269,5.269,0,0,0,4.262-1.853l1.482-1.76-2.316.371a15.147,15.147,0,0,1-2.049.184,20,20,0,0,1-6.672-1.482c-.833-.278-1.667-.556-2.593-.833a7.309,7.309,0,0,1-1.482-.927,5.49,5.49,0,0,0-2.96-1.389,2.787,2.787,0,0,0-2.316,1.576l-.455.742.742.455a32.991,32.991,0,0,1,7.769,6.571,30.8,30.8,0,0,0,11.2,8.163l-1.667.556A34.929,34.929,0,0,1,59.2,114.614c-.278-.184-.556-.371-.927-.649a3.559,3.559,0,0,0-2.409-1.2,3.076,3.076,0,0,0-1.482.455l-.556.371.184.649c.649,2.871,3.242,4.262,7.783,4.262,1.02,0,2.049-.093,3.336-.184a37.711,37.711,0,0,0,13.889-4.447l-.184,1.2a6.48,6.48,0,0,1-2.409,3.336,5.97,5.97,0,0,0-1.76,2.131l-.649,2.131,1.947-1.111c2.96-1.667,4.634-3.242,5.009-4.818a2.436,2.436,0,0,0-.556-2.225l-.927-1.111a10.7,10.7,0,0,0,1.853-1.389v5.28H120V102.1h-9.647a17.562,17.562,0,0,1,3.429-17.6c2.409-1.853,3.985-5.374,5.838-8.247a5.786,5.786,0,0,1,4.54-2.96V68.284h25.668V94.137h14.548V24.74H149.824V50.219h-25.67v-8.8c0-33.911-37.342-43.454-46.14-41.045C108.126,16.124,102.566,30.487,96.452,38c-5.745,7.412-23.626,10.376-23.626,10.376l.278,4.818L0,51.61V70.334H73.1ZM368.757,132.31a5.237,5.237,0,0,1-1.667.278h-10.1v-3.242h10.1a5.237,5.237,0,0,1,1.667.278c.742.278,1.2.742,1.2,1.3C369.961,131.568,369.59,131.939,368.757,132.31Zm5.92-17.048a9.44,9.44,0,0,0-3.52-4.262,8.951,8.951,0,0,0-4.634-1.3h-11.4l-3.8,7.969h15.75a2.127,2.127,0,0,1,1.3.371,1.571,1.571,0,0,1,.833,1.482,1.669,1.669,0,0,1-.833,1.482,2.127,2.127,0,0,1-1.3.371H351.335v19.177H366.53a9.846,9.846,0,0,0,4.634-1.2,8.265,8.265,0,0,0,3.52-4.169,10.992,10.992,0,0,0,.927-4.262,9.8,9.8,0,0,0-1.667-5.558,10.184,10.184,0,0,0,1.667-5.745,9.944,9.944,0,0,0-.924-4.354Zm2.049-5.465,11.212,20.568v10.285h5.651V130.445l10.841-20.568H397.2l-6.394,12.507-6.856-12.507h-7.229Zm39.191,22.792a4.6,4.6,0,0,1-3.891-2.049,8.5,8.5,0,0,1-1.482-5.28,8.687,8.687,0,0,1,1.576-5.465,4.69,4.69,0,0,1,3.891-2.131h9.172L428.8,109.7H416a9.6,9.6,0,0,0-7.969,4.169,18.179,18.179,0,0,0-3.058,10.929,18.837,18.837,0,0,0,3.151,11.212A9.29,9.29,0,0,0,416,140.464h12.23V122.021H411.739l3.707,7.6h7.134v2.876h-6.671Zm24.553,0a4.6,4.6,0,0,1-3.891-2.049,8.5,8.5,0,0,1-1.482-5.28,8.687,8.687,0,0,1,1.576-5.465,4.691,4.691,0,0,1,3.891-2.131h9.172l3.614-7.969H440.563a9.6,9.6,0,0,0-7.969,4.169,18.179,18.179,0,0,0-3.058,10.929,18.839,18.839,0,0,0,3.149,11.212,9.29,9.29,0,0,0,7.876,4.447h12.23V122.021H436.3l3.707,7.6h7.134v2.876h-6.671ZM472.8,140.56H494.3l-11.4-27.324a8.827,8.827,0,0,0-1.482-2.409,3.021,3.021,0,0,0-2.131-1.111,3.188,3.188,0,0,0-2.131,1.111,7.244,7.244,0,0,0-1.576,2.409L463.906,140.56h7.043l8.245-18.994,4.725,11.025h-7.689Zm29.277-22.792h12.979l3.614-7.969H502.086a6.728,6.728,0,0,0-5.189,2.409,11.54,11.54,0,0,0,0,13.621,6.728,6.728,0,0,0,5.189,2.409h9.265a2.277,2.277,0,0,1,1.576.455,1.906,1.906,0,0,1,.927,1.76,2.006,2.006,0,0,1-.927,1.76,2.516,2.516,0,0,1-1.576.556H498.288l-3.614,7.969h16.77A7.017,7.017,0,0,0,517,138.05a11.1,11.1,0,0,0,2.316-7.412A11.529,11.529,0,0,0,517,123.125a6.754,6.754,0,0,0-5.558-2.687H502.18c-.649,0-1.02-.455-1.02-1.2-.1-1.006.275-1.471.924-1.471Z" transform="translate(0 -0.019)" fill="url(#radial-gradient)"/>
</svg>
