<svg width="534" height="129" viewBox="0 0 534 129" fill="none" xmlns="http://www.w3.org/2000/svg">
<g clip-path="url(#clip0)">
<path fill-rule="evenodd" clip-rule="evenodd" d="M94.3 77.1C93.2 95.8 77.6 110.7 58.6 110.7C39.6 110.7 24 95.9 22.9 77.1C23.6 77.1 24.4 77.2 25.1 77.2C31.9 77.2 38.2 75.3 43.6 72C43.9 72.3 44.3 72.6 44.6 72.9L43.9 73.9L37.1 77.2L36.9 89L57.1 78C57.2 78 57.4 78 57.5 78C54.7 84.3 51.7 89.7 48.2 95.7L59.3 91.8L68.1 95.4L60.1 77.9C60.5 77.9 60.9 77.8 61.3 77.8L81.4 90.1L81.8 77.9L73.2 74L72.5 73C72.9 72.7 73.3 72.3 73.6 72C79 75.3 85.3 77.2 92.1 77.2C92.9 77.1 93.6 77.1 94.3 77.1Z" fill="#002D74"/>
<path fill-rule="evenodd" clip-rule="evenodd" d="M65.5 3.8C82.3 -4.6 102.9 1.5 112.4 17.9C121.9 34.4 116.8 55.2 101.2 65.6C100.9 65 100.5 64.3 100.2 63.7C96.8 57.8 92 53.2 86.4 50.2C86.5 49.8 86.6 49.3 86.7 48.9L88 49L94.3 53.2L104.6 47.5L84.6 35.2V35.1C91.5 34.4 97.9 34.2 104.9 34.3L96 26.7L94.7 17.3L83.4 33.3C83.2 33 83 32.8 82.9 32.5L83.6 8.5L72.8 14.3L73.4 23.6L72.8 25C72.3 24.8 71.9 24.7 71.4 24.6C71.6 18.2 70.1 11.7 66.6 5.7C66.3 5 65.9 4.4 65.5 3.8Z" fill="#002D74"/>
<path fill-rule="evenodd" clip-rule="evenodd" d="M16 65.6C0.399999 55.2 -4.7 34.3 4.8 17.9C14.3 1.4 34.9 -4.6 51.7 3.8C51.3 4.4 50.9 5 50.5 5.7C47.1 11.6 45.5 18.2 45.7 24.6C45.3 24.7 44.9 24.8 44.5 25L44 23.5L44.5 15.9L34.4 9.9L33.8 33.4C29.7 27.8 26.4 22.4 22.9 16.2L20.7 27.7L13.2 33.5L32.6 35.3C32.4 35.6 32.3 35.9 32.2 36.2L11.1 47.6L21.5 54L29.3 48.8L30.6 48.6C30.7 49.1 30.8 49.6 30.9 50.1C25.3 53.1 20.5 57.7 17.1 63.6C16.7 64.3 16.3 64.9 16 65.6Z" fill="#00ADEE"/>
<path d="M169.5 49.7V4.7C169.5 2.5 168.2 1.5 166.1 1.5C164.5 1.5 163.6 2.4 163.1 3.5L151.5 27.8C151.2 28.4 151 28.7 150.6 28.7C150.2 28.7 150 28.4 149.7 27.8L138.3 3.6C137.8 2.5 136.8 1.6 135.3 1.6C133.3 1.6 131.9 2.7 131.9 4.8V49.7C131.9 50.4 132.4 51 133 51H133.7C134.4 51 134.8 50.4 134.8 49.7V4.7C134.8 4.4 135 4.2 135.3 4.2C135.6 4.2 135.8 4.3 136 4.8L147.3 29C148.2 30.9 149.2 31.4 150.7 31.4C152.2 31.4 153.1 30.9 154.1 29L165.5 4.9C165.7 4.4 165.8 4.3 166.2 4.3C166.5 4.3 166.7 4.4 166.7 4.8V49.7C166.7 50.4 167.2 51 167.8 51H168.5C169.1 50.9 169.5 50.3 169.5 49.7ZM202.5 49.6V27.3C202.5 20.2 200.2 15.1 191.3 15.1C186.9 15.1 184.7 15.4 181.9 15.7C180.9 15.8 180.4 16.2 180.4 16.9V17.3C180.4 18 181.1 18.3 181.7 18.3C181.8 18.3 181.9 18.3 182 18.3C185.1 18 187 17.7 191.4 17.7C197.8 17.7 199.7 20.4 199.7 27.3V29.7H194.6C182.6 29.7 178.3 33.1 178.3 39.9V40.8C178.3 49.1 183.5 51.5 188.4 51.5C192.5 51.5 196.4 49.9 199.6 48.1V49.8C199.6 50.5 200.2 51.1 200.9 51.1H201.2C201.9 51 202.5 50.3 202.5 49.6ZM199.5 45.4C195.1 47.8 191.9 48.8 188.2 48.8C184.2 48.8 181 46.9 181 40.7V39.8C181 34.2 184.4 32.2 194.4 32.2H199.5V45.4ZM236.9 49.7V27.7C236.9 18.5 231.6 15.1 225.3 15.1C221.9 15.1 218.1 16.2 214.7 17.8V16.7C214.7 16 214.2 15.4 213.5 15.4H213C212.3 15.4 211.8 16 211.8 16.7V49.6C211.8 50.3 212.4 50.9 213.1 50.9H213.5C214.2 50.9 214.8 50.3 214.8 49.6V20.4C218.1 18.8 221.9 17.7 225.2 17.7C230.2 17.7 234.1 20.2 234.1 27.7V49.6C234.1 50.3 234.6 50.9 235.3 50.9H235.8C236.4 51 236.9 50.3 236.9 49.7ZM270.2 48.8V3.1C270.2 2.4 269.7 1.8 269.1 1.8H268.4C267.7 1.8 267.3 2.4 267.3 3.1V16.1C264.7 15.5 260.7 15.1 258.1 15.1C249.5 15.1 245.1 20.5 245.1 30.9V35.3C245.1 44.8 248.9 51.4 258.1 51.4C261.9 51.4 266.3 50.7 269.2 50.1C270 49.9 270.2 49.6 270.2 48.8ZM267.3 47.9C264.9 48.3 261.3 48.8 258.1 48.8C250.7 48.8 248.1 43.8 248.1 35.3V30.9C248.1 22.2 250.9 17.7 258.1 17.7C260.7 17.7 264.8 18 267.3 18.6V47.9ZM302.4 49.6V27.3C302.4 20.2 300.1 15.1 291.2 15.1C286.8 15.1 284.6 15.4 281.8 15.7C280.8 15.8 280.3 16.2 280.3 16.9V17.3C280.3 18 281 18.3 281.6 18.3C281.7 18.3 281.8 18.3 281.9 18.3C285 18 286.9 17.7 291.3 17.7C297.7 17.7 299.6 20.4 299.6 27.3V29.7H294.5C282.5 29.7 278.2 33.1 278.2 39.9V40.8C278.2 49.1 283.4 51.5 288.3 51.5C292.4 51.5 296.3 49.9 299.5 48.1V49.8C299.5 50.5 300.1 51.1 300.8 51.1H301.1C301.8 51 302.4 50.3 302.4 49.6ZM299.5 45.4C295.1 47.8 291.9 48.8 288.2 48.8C284.2 48.8 281 46.9 281 40.7V39.8C281 34.2 284.4 32.2 294.4 32.2H299.5V45.4ZM315.3 49.7V3.1C315.3 2.4 314.8 1.8 314.2 1.8H313.5C312.8 1.8 312.4 2.4 312.4 3.1V49.7C312.4 50.4 312.9 51 313.5 51H314.2C314.8 50.9 315.3 50.3 315.3 49.7Z" fill="#00ADEE"/>
<path d="M178.6 112C178.6 111.8 178.5 111.5 178.4 111.2L161.8 84.2L178.3 58.2C178.5 57.9 178.6 57.6 178.6 57.4C178.6 56.9 178.2 56.6 177.5 56.6H163C162.2 56.6 161.7 57.1 161.3 57.8L146.8 82V58C146.8 57.2 146.1 56.6 145.3 56.6H133C132.2 56.6 131.4 57.2 131.4 58V111.3C131.4 112.1 132.2 112.8 133 112.8H145.3C146.1 112.8 146.8 112.1 146.8 111.3V87.4L160.1 111.6C160.5 112.3 160.8 112.9 161.7 112.9H177.6C178.3 112.8 178.6 112.4 178.6 112ZM243.8 68.2L241.5 73.4C244.9 76.9 246.7 82 246.7 88.7V93C246.7 106.3 239.5 113.5 226.9 113.5C223.9 113.5 221.2 113.1 218.9 112.3L217.2 113.5C216.9 113.8 216.6 113.8 216.1 113.8H211C210.6 113.8 210.5 113.1 210.6 112.7L212.4 108.4C208.9 104.9 207 99.7 207 93V88.6C207 75.3 214.3 68.1 226.9 68.1C230 68.1 232.7 68.5 235.1 69.3L237.2 67.7C237.5 67.4 238 67.4 238.4 67.4L243.5 67C244 67 244.1 67.8 243.8 68.2ZM232.3 89.3L225.4 101.2C225.9 101.3 226.4 101.4 227 101.4C230.5 101.4 232.4 99.1 232.4 93V89.3H232.3ZM221.5 92.8L228.6 80.5C228.1 80.3 227.5 80.3 226.9 80.3C223.4 80.3 221.4 82.6 221.4 88.6V92.8H221.5ZM199.8 63.1V55.7C199.8 54.9 199 54.2 198.1 54.2H186.2C185.4 54.2 184.5 54.9 184.5 55.7V63.1C184.5 63.9 185.3 64.6 186.2 64.6H198.1C199 64.6 199.8 63.9 199.8 63.1ZM199.5 114.4V70.3C199.5 69.5 198.7 68.7 197.8 68.7H186.5C185.7 68.7 184.8 69.5 184.8 70.3V114.4C184.8 116.4 184.6 117.6 182.8 117.6H179.5C178.6 117.6 177.9 118.3 177.9 119.1V126.1C177.9 126.9 178.5 127.5 179.4 127.7C182.1 128.2 184.3 128.4 186.5 128.4C194.3 128.4 199.5 125.3 199.5 114.4ZM268.6 111.2V55.8C268.6 55 267.9 54.3 267.1 54.3H255.7C254.9 54.3 254 55 254 55.8V111.2C254 112 254.8 112.9 255.7 112.9H267.1C267.9 112.8 268.6 112 268.6 111.2ZM315.3 93.2V88.7C315.3 76.5 309.2 68.1 295.9 68.1C283.5 68.1 275.8 75.4 275.8 88.7V93.7C275.8 108.2 285.3 113.6 295.5 113.6C301.9 113.6 307.1 112.8 311.9 111.2C313.1 110.8 313.4 110.3 313.4 109.1V102.3C313.4 101.4 312.9 101 312 101C311.9 101 311.8 101 311.7 101C308.8 101.3 301.3 101.6 297.3 101.6C291.8 101.6 290.1 99.1 290.1 95.1V94.9H313.6C314.6 94.9 315.3 94.2 315.3 93.2ZM301.4 86.9H290.2V86.7C290.2 82.2 292.2 79.4 295.8 79.4C299.6 79.4 301.4 82.1 301.4 86.7V86.9V86.9ZM347.9 102.8C347.9 97.8 344.6 95.3 338.3 91.8L333.2 89C328.6 86.4 325.9 84.5 325.9 81.1C325.9 75.7 329.6 74.7 334.5 74.7C338.7 74.7 343.1 75.3 345 75.5C345.1 75.5 345.2 75.5 345.2 75.5C346 75.5 346.6 75.2 346.6 74.3V73.7C346.6 73 346.1 72.6 345 72.4C342.4 72.1 339.6 71.7 334.2 71.7C328.2 71.7 322.6 74 322.6 81C322.6 86.1 326.1 88.6 331.8 91.8L336.6 94.5C343 98 344.6 99.6 344.6 102.8C344.6 108.9 340.4 110.4 335 110.4C331.9 110.4 327.5 109.8 323.9 109.2C323.7 109.2 323.6 109.2 323.4 109.2C322.7 109.2 322.2 109.5 322.2 110.3V111.1C322.2 111.8 322.8 112.1 323.9 112.3C326.6 112.8 331.5 113.4 334.9 113.4C341.8 113.3 347.9 110.9 347.9 102.8ZM386.2 91.9V89.9C386.2 79.1 381.6 71.9 371.1 71.9C361.1 71.9 355.8 79.5 355.8 90V95C355.8 109.3 363.4 113.4 372.8 113.4C376.2 113.4 380.5 112.9 384.2 112.1C385.3 111.9 385.6 111.5 385.6 110.7V110C385.6 109.2 385.1 108.9 384.5 108.9C384.3 108.9 384.2 109 384 109C380.3 109.8 376.1 110.3 372.8 110.3C365.2 110.3 359.1 107.6 359.1 94.9V93.3H384.7C385.5 93.3 386.2 92.7 386.2 91.9ZM382.8 90.3H359.1V89.9C359.1 80.9 362.7 74.8 371.1 74.8C379.7 74.8 382.8 80.3 382.8 89.9V90.3ZM411.5 73.5V72.9C411.5 72 410.7 71.8 409.5 71.8C405.8 71.8 402.8 72.8 399 75.3V73.7C399 72.9 398.5 72.2 397.6 72.2H397C396.2 72.2 395.6 72.9 395.6 73.7V111.4C395.6 112.2 396.3 112.9 397 112.9H397.5C398.3 112.9 398.9 112.2 398.9 111.4V78.2C403.4 75.4 406.5 74.7 409.4 74.7C410.7 74.7 411.5 74.5 411.5 73.5ZM447.1 73.3C447.1 72.6 446.8 72.2 446 72.2H445.1C444.6 72.2 444 72.5 443.7 73.6L434 107.7C433.3 110 432.7 110.4 431.9 110.4C431.1 110.4 430.3 109.9 429.6 107.7L420 73.5C419.7 72.4 419.2 72.1 418.6 72.1H417.8C417 72.1 416.6 72.6 416.6 73.4C416.6 73.6 416.6 73.8 416.7 74L426.6 108.5C427.7 112.5 429.8 113.3 431.9 113.3C434.1 113.3 435.9 112.5 437 108.5L446.9 74C447.1 73.8 447.1 73.5 447.1 73.3ZM459.5 63.2V57.6C459.5 56.8 458.8 56.2 458.1 56.2H457.6C456.8 56.2 456.2 56.9 456.2 57.6V63.2C456.2 64 456.9 64.6 457.6 64.6H458.1C458.8 64.7 459.5 64.1 459.5 63.2ZM459.5 111.4V73.6C459.5 72.8 458.8 72.2 458.1 72.2H457.6C456.8 72.2 456.2 72.9 456.2 73.6V111.4C456.2 112.2 456.9 112.8 457.6 112.8H458.1C458.8 112.8 459.5 112.1 459.5 111.4ZM495.3 111.2V110.7C495.3 109.9 494.8 109.6 494.1 109.6C493.9 109.6 493.9 109.6 493.7 109.6C490.1 110.1 487.2 110.3 484.7 110.3C476.1 110.3 473 104.1 473 94.9V89.8C473 80.6 476 74.7 484.7 74.7C487.2 74.7 490.2 74.9 493.7 75.4C493.9 75.4 493.9 75.4 494.1 75.4C494.8 75.4 495.3 75.1 495.3 74.3V73.8C495.3 73 495 72.6 493.9 72.4C490.7 72 487.2 71.7 484.7 71.7C473.9 71.7 469.7 79.7 469.7 89.8V95C469.7 104.9 473.9 113.3 484.7 113.3C487.1 113.3 490.7 113 493.9 112.6C495 112.4 495.3 112.1 495.3 111.2ZM533.2 91.9V89.9C533.2 79.1 528.6 71.9 518.1 71.9C508.1 71.9 502.8 79.5 502.8 90V95C502.8 109.3 510.4 113.4 519.8 113.4C523.2 113.4 527.5 112.9 531.2 112.1C532.3 111.9 532.6 111.5 532.6 110.7V110C532.6 109.2 532.1 108.9 531.5 108.9C531.3 108.9 531.2 109 531 109C527.3 109.8 523.1 110.3 519.8 110.3C512.2 110.3 506.1 107.6 506.1 94.9V93.3H531.7C532.5 93.3 533.2 92.7 533.2 91.9ZM529.8 90.3H506.1V89.9C506.1 80.9 509.7 74.8 518.1 74.8C526.7 74.8 529.8 80.3 529.8 89.9V90.3Z" fill="#002D74"/>
</g>
<defs>
<clipPath id="clip0">
<rect width="533.2" height="128.4" fill="white"/>
</clipPath>
</defs>
</svg>
