<?xml version="1.0" encoding="UTF-8"?>
<svg width="750px" height="214px" viewBox="0 0 750 214" version="1.1" xmlns="http://www.w3.org/2000/svg" xmlns:xlink="http://www.w3.org/1999/xlink">
    <!-- Generator: Sketch 47.1 (45422) - http://www.bohemiancoding.com/sketch -->
    <title>Graphic / logo</title>
    <desc>Created with Sketch.</desc>
    <defs>
        <polygon id="path-1" points="0 0.0814467826 749.9997 0.0814467826 749.9997 213 0 213"></polygon>
    </defs>
    <g id="Symbols" stroke="none" stroke-width="1" fill="none" fill-rule="evenodd">
        <g id="Graphic-/-logo">
            <g id="Page-1">
                <g id="Group-3" transform="translate(0.000000, 0.919000)">
                    <mask id="mask-2" fill="white">
                        <use xlink:href="#path-1"></use>
                    </mask>
                    <g id="Clip-2"></g>
                    <path d="M202.5967,10.2911 C202.5967,10.2911 204.9637,14.3591 204.9637,21.5411 C204.6687,47.3871 204.9907,69.6001 204.9987,93.5841 C204.7647,99.7091 208.6587,106.6831 217.9677,106.5001 C225.5067,106.3531 749.8957,106.4791 749.8957,106.4791 C749.8957,136.9671 749.8617,171.8781 749.9997,202.9051 L223.8407,202.8881 C209.0677,202.8881 194.5027,199.8321 194.5717,176.4461 L194.4247,111.4271 C194.2937,107.0961 193.4787,106.0721 190.1477,104.5451 C185.2727,104.6321 183.8417,108.1801 181.4647,111.6061 C161.9637,143.2501 140.8937,170.5881 120.5777,201.9691 C112.8477,210.9091 103.6107,214.8091 93.3827,212.2071 C74.8887,208.8561 80.2227,172.9481 79.1817,151.8831 L79.1207,117.3271 C79.2607,112.1091 74.8887,107.3001 67.0637,107.3631 C43.1217,107.0181 24.4887,107.3631 0.0947,107.3631 C-0.0003,73.4471 -0.0003,42.8761 -0.0003,8.9201 L70.3767,8.8191 C82.6867,10.0531 89.2537,15.7951 90.0687,25.6401 L90.0687,104.4231 C90.6857,108.3271 93.5997,109.4501 96.0197,108.7381 C98.6917,108.5301 100.3317,105.7121 100.3317,105.7121 C121.8437,72.8091 142.2987,41.5541 164.5047,9.4611 C169.9357,2.1881 180.3017,-1.5239 190.2347,0.7441 C195.0057,2.2931 199.9417,5.5931 202.5967,10.2911" id="Fill-1" fill="#009EE2" mask="url(#mask-2)"></path>
                </g>
                <polygon id="Fill-4" fill="#FEFEFE" points="228.7681 177.402 228.7681 131.462 243.2801 131.462 256.9421 163.281 257.0901 163.281 257.0901 131.462 267.1191 131.462 267.1191 177.402 252.9611 177.402 238.9431 143.807 238.7951 143.807 238.7951 177.402"></polygon>
                <path d="M294.0698,160.4147 C294.0698,153.7287 293.7148,150.3587 289.4458,150.3587 C285.1698,150.3587 284.8148,153.7287 284.8148,160.4147 C284.8148,170.2127 285.7418,172.3107 289.4458,172.3107 C293.1418,172.3107 294.0698,170.2127 294.0698,160.4147 M274.7858,160.9217 C274.7858,152.1427 276.2098,144.6297 289.4458,144.6297 C302.6758,144.6297 304.0978,152.1427 304.0978,160.9217 C304.0978,170.9757 302.3978,178.0397 289.4458,178.0397 C276.4958,178.0397 274.7858,170.9757 274.7858,160.9217" id="Fill-6" fill="#FEFEFE"></path>
                <path d="M320.7363,145.2673 L320.7363,149.4063 L320.8833,149.4063 C322.7303,145.7143 326.1503,144.6293 330.1993,144.6293 L330.1993,152.6493 C321.3783,152.1423 321.2393,156.7233 321.2393,159.9073 L321.2393,177.4023 L311.2023,177.4023 L311.2023,145.2673 L320.7363,145.2673 Z" id="Fill-8" fill="#FEFEFE"></path>
                <polygon id="Fill-10" fill="#FEFEFE" points="335.3877 177.402 335.3877 131.462 363.4247 131.462 363.4247 138.522 346.1357 138.522 346.1357 149.851 362.0707 149.851 362.0707 156.913 346.1357 156.913 346.1357 170.342 363.9957 170.342 363.9957 177.402"></polygon>
                <path d="M380.4854,148.5163 L380.6324,148.5163 C382.6204,145.6503 385.3284,144.6293 389.1014,144.6293 C393.8644,144.6293 398.0624,147.1803 398.0624,151.6313 L398.0624,177.4023 L388.0324,177.4023 L388.0324,155.2573 C388.0324,152.3943 387.4634,150.1683 384.2584,150.1683 C381.0584,150.1683 380.4854,152.3943 380.4854,155.2573 L380.4854,177.4023 L370.4604,177.4023 L370.4604,145.2673 L380.4854,145.2673 L380.4854,148.5163 Z" id="Fill-12" fill="#FEFEFE"></path>
                <path d="M419.3311,171.4255 C422.9571,171.4255 423.4531,168.0525 423.4531,161.2415 C423.4531,154.1805 423.0971,150.1685 419.4021,150.1685 C415.6291,150.1685 414.9851,152.5245 414.9851,162.3245 C414.9851,165.3135 414.4921,171.4255 419.3311,171.4255 L419.3311,171.4255 Z M433.4891,145.2675 L433.4891,178.7375 C433.4891,180.9685 433.6281,189.7515 419.8271,189.7515 C412.3571,189.7515 405.9471,188.0295 405.7401,180.2055 L415.5581,180.2055 C415.5581,181.5405 415.7681,182.6865 416.4081,183.4485 C417.0521,184.2775 418.1851,184.7245 419.7571,184.7245 C422.2461,184.7245 423.4531,182.6235 423.4531,179.3805 L423.4531,173.2025 L423.3141,173.2025 C421.8201,175.6845 418.9771,176.9595 415.6961,176.9595 C404.6711,176.9595 405.1671,167.9215 405.1671,160.6695 C405.1671,153.6055 405.3141,144.6295 415.7681,144.6295 C419.3311,144.6295 422.3851,146.0345 423.8081,149.0235 L423.9551,149.0235 L423.9551,145.2675 L433.4891,145.2675 Z" id="Fill-14" fill="#FEFEFE"></path>
                <path d="M451.123,145.2673 L451.123,149.4063 L451.262,149.4063 C453.119,145.7143 456.529,144.6293 460.59,144.6293 L460.59,152.6493 C451.767,152.1423 451.619,156.7233 451.619,159.9073 L451.619,177.4023 L441.592,177.4023 L441.592,145.2673 L451.123,145.2673 Z" id="Fill-16" fill="#FEFEFE"></path>
                <path d="M483.7061,160.4147 C483.7061,153.7287 483.3521,150.3587 479.0821,150.3587 C474.8071,150.3587 474.4501,153.7287 474.4501,160.4147 C474.4501,170.2127 475.3801,172.3107 479.0821,172.3107 C482.7791,172.3107 483.7061,170.2127 483.7061,160.4147 M464.4221,160.9217 C464.4221,152.1427 465.8461,144.6297 479.0821,144.6297 C492.3101,144.6297 493.7331,152.1427 493.7331,160.9217 C493.7331,170.9757 492.0351,178.0397 479.0821,178.0397 C466.1321,178.0397 464.4221,170.9757 464.4221,160.9217" id="Fill-18" fill="#FEFEFE"></path>
                <path d="M508.6631,167.0964 C508.5951,168.5594 508.6631,169.9594 509.1591,170.9754 C509.7311,171.9984 510.7981,172.5054 512.7941,172.5054 C514.7781,172.5054 516.4871,171.3574 516.4871,169.1974 C516.4871,162.3874 498.8431,163.9124 498.8431,153.6694 C498.8431,146.7304 506.5281,144.6294 513.0011,144.6294 C519.8361,144.6294 526.0301,147.5634 525.4581,154.4924 L515.6371,154.4924 C515.6371,152.2664 515.3501,150.9314 514.6391,150.3594 C513.9981,149.7854 513.1471,149.6604 512.0821,149.6604 C509.8681,149.6604 508.6631,150.9314 508.6631,153.0974 C508.6631,158.1894 526.3081,157.9334 526.3081,168.2424 C526.3081,173.8414 521.1901,178.0394 512.8611,178.0394 C504.1101,178.0394 498.2721,176.0664 498.8431,167.0964 L508.6631,167.0964 Z" id="Fill-20" fill="#FEFEFE"></path>
            </g>
        </g>
    </g>
</svg>