<?xml version="1.0" encoding="utf-8"?>
<!-- Generator: Adobe Illustrator 16.0.0, SVG Export Plug-In . SVG Version: 6.00 Build 0)  -->
<!DOCTYPE svg PUBLIC "-//W3C//DTD SVG 1.1//EN" "http://www.w3.org/Graphics/SVG/1.1/DTD/svg11.dtd">
<svg version="1.1" id="Layer_1" xmlns="http://www.w3.org/2000/svg" xmlns:xlink="http://www.w3.org/1999/xlink" x="0px" y="0px"
	 width="353.724px" height="78.804px" viewBox="0 0 353.724 78.804" enable-background="new 0 0 353.724 78.804"
	 xml:space="preserve">
<g>
	<path fill="#231F20" d="M72.251,69.887c-0.493,2.153-0.847,4.622-3.686,6.441c-3.257,2.1-8.442,2.665-12.586,2.424l-4.771-0.257
		c-1.082-0.06-1.768-0.972-1.525-2.027l0.463-2.02c0.243-1.056,1.297-1.755,2.346-1.554c0,0,0,0,0.994,0
		c3.766,0,4.277-1.3,4.668-3.006L62.2,51.912c0.244-1.057,1.327-1.92,2.41-1.92h10.158c1.084,0,1.771,0.863,1.529,1.92
		L72.251,69.887z"/>
	<path fill="#231F20" d="M100.271,64.193c0,0-0.708,2.906-6.036,2.906c-2.201,0-3.527-0.56-3.258-1.904
		c0.709-3.546,6.987-2.807,10.065-4.408C101.043,60.787,100.53,63.139,100.271,64.193z M97.965,52.661
		c-0.554,2.631,2.494,2.285,3.448,2.708c1.107,0.492,0.615,2.709-1.725,2.832c-3.811,0.201-7.762,0.373-12.564,1.185
		c-5.246,0.892-10.227,3.082-10.98,6.367c-0.873,4.129,4.544,6.217,11.293,6.217c4.975,0,9.223-0.873,12.612-3.263
		c-0.224,0.981-0.159,2.744,0.872,2.791c1.03,0.047,10.096,0,10.096,0c1.083,0,1.867-0.67,1.744-1.491
		c-0.126-0.82,0.678-3.82,0.921-4.877l1.222-5.339c0.68-2.961,2.146-6.335-2.164-8.239C109.533,50.094,98.458,50.321,97.965,52.661z
		"/>
	<path fill="#231F20" d="M150.163,69.652c-0.242,1.056-1.328,1.919-2.412,1.919h-28.107c-1.082,0-1.771-0.863-1.529-1.919
		l0.15-0.656c0.242-1.056,1.191-2.392,2.106-2.97l14.604-9.19c0.917-0.577,0.78-1.034-0.303-1.015l-0.627,0.011
		c-1.083,0.02-2.855,0.035-3.94,0.035h-5.51c-1.084,0-1.772-0.864-1.531-1.92l0.27-1.175c0.243-1.057,1.327-1.921,2.413-1.921
		h26.186c1.085,0,1.773,0.864,1.53,1.921l-0.112,0.492c-0.242,1.056-1.194,2.387-2.114,2.958l-14.79,9.167
		c-0.923,0.571-0.789,1.037,0.294,1.037h12.191c1.083,0,1.771,0.866,1.529,1.921L150.163,69.652z"/>
	<path fill="#231F20" d="M184.204,69.652c-0.242,1.056-1.327,1.919-2.41,1.919h-28.106c-1.085,0-1.774-0.863-1.531-1.919l0.15-0.656
		c0.242-1.056,1.192-2.392,2.107-2.97l14.601-9.19c0.919-0.577,0.782-1.034-0.302-1.015l-0.624,0.011
		c-1.086,0.02-2.857,0.035-3.94,0.035h-5.511c-1.083,0-1.772-0.864-1.53-1.92l0.27-1.175c0.242-1.057,1.327-1.921,2.41-1.921h26.188
		c1.084,0,1.772,0.864,1.529,1.921l-0.114,0.492c-0.241,1.056-1.192,2.387-2.112,2.958l-14.792,9.167
		c-0.92,0.571-0.788,1.037,0.296,1.037h12.19c1.083,0,1.771,0.866,1.53,1.921L184.204,69.652z"/>
</g>
<g>
	<path fill="#231F20" d="M211.995,52.238c-0.122,0.69-1.106,1.255-2.189,1.255h-4.441c-1.086,0-2.127,0.886-2.316,1.969
		l-2.47,14.142c-0.192,1.083-1.231,1.97-2.316,1.97h-1.602c-1.082,0-1.814-0.887-1.623-1.97l2.47-14.142
		c0.19-1.083-0.543-1.969-1.624-1.969h-2.454c-1.085,0-1.872-0.565-1.752-1.255c0.121-0.689,1.106-1.253,2.189-1.253h2.453
		c1.083,0,2.365-0.852,2.847-1.893c0,0,2.893-6.249,11.544-5.763l2.977,0.171c1.07,0.062,1.845,0.687,1.723,1.388
		s-1.087,1.179-2.143,1.061c0,0-1.007-0.112-2.567-0.112c-6.11,0-6.482,2.532-6.868,5.147h6.412
		C211.327,50.985,212.116,51.548,211.995,52.238z"/>
	<path fill="#231F20" d="M225.625,69.333c-3.273,0-6.16-1.011-7.453-2.586c-1.283-1.619-1.407-3.759-1.081-5.62
		c0.288-1.655,1.062-3.638,2.678-5.132c1.878-1.779,5.209-2.912,8.697-2.912c3.134,0,5.962,0.93,7.41,2.426
		c1.562,1.658,1.639,3.679,1.299,5.618c-0.312,1.78-0.924,3.638-2.701,5.256C232.44,68.242,229.331,69.333,225.625,69.333z
		 M224.667,71.967c10.969,0,17.677-5.059,18.68-10.799c0.946-5.415-3.386-10.699-13.995-10.699
		c-10.896,0-17.447,4.959-18.441,10.659C209.962,66.545,213.846,71.967,224.667,71.967z"/>
	<path fill="#231F20" d="M252.717,50.985c1.084,0,1.814,0.885,1.626,1.969l-0.146,0.837c-0.188,1.083-0.312,1.97-0.273,1.97
		s0.778-0.663,1.64-1.471c0,0,4.126-3.873,9.951-3.873l0.09,0.003c1.077,0.042,1.838,0.751,1.694,1.575
		c-0.142,0.824-0.518,1.498-0.83,1.498S265,53.634,263.9,53.808c0,0-5.451,0.859-7.911,2.965c-1.752,1.502-2.263,2.801-2.547,4.427
		l-1.47,8.405c-0.191,1.083-1.231,1.97-2.314,1.97h-1.603c-1.083,0-1.814-0.887-1.623-1.97l2.908-16.65
		c0.188-1.084,1.231-1.969,2.314-1.969H252.717z"/>
	<path fill="#231F20" d="M293.09,71.574c-1.084,0-1.815-0.887-1.625-1.97l0.029-0.17c0.189-1.083,0.312-1.97,0.274-1.97
		c-0.042,0-0.881,0.523-1.866,1.166c0,0-5.124,3.331-10.112,3.331c-3.562,0-6.855-0.728-8.854-2.309
		c-2.118-1.702-2.132-4.053-1.765-6.16l1.843-10.538c0.188-1.084,1.231-1.969,2.313-1.969h1.601c1.084,0,1.814,0.885,1.626,1.969
		l-1.497,8.568c-0.188,1.083-0.454,2.854-0.585,3.936c0,0-0.093,0.75,0.793,1.803c0.871,1.136,3.225,1.946,5.506,1.946
		c2.993,0,5.691-0.77,7.822-2.079c2.476-1.543,3.343-3.249,3.686-5.198l1.568-8.975c0.189-1.084,1.229-1.969,2.314-1.969h1.601
		c1.084,0,1.815,0.885,1.625,1.969l-2.911,16.65c-0.188,1.083-1.231,1.97-2.312,1.97H293.09z"/>
	<path fill="#231F20" d="M309.345,50.985c1.083,0,1.814,0.885,1.626,1.969l-0.011,0.064c-0.189,1.083-0.312,1.971-0.273,1.971
		c0.038,0,0.864-0.547,1.831-1.218c0,0,4.778-3.302,9.819-3.302c5.253,0,8.66,2.044,9.295,4.924
		c2.483-2.84,6.965-4.924,12.504-4.924c3.69,0,7.034,1.184,8.567,2.981c1.479,1.7,1.01,3.968,0.68,5.872l-1.797,10.283
		c-0.191,1.083-1.232,1.97-2.316,1.97h-1.601c-1.084,0-1.816-0.887-1.627-1.97l1.453-8.312c0.191-1.084,0.545-2.857,0.79-3.939
		c0,0,0.193-0.868-0.725-2.122c-0.974-1.337-3.173-2.148-5.656-2.148c-2.77,0-5.495,0.973-7.361,2.31
		c-2.349,1.66-2.541,3.159-2.88,5.103l-1.593,9.109c-0.189,1.083-1.23,1.97-2.313,1.97h-1.603c-1.082,0-1.813-0.887-1.625-1.97
		l1.589-9.083c0.188-1.083,0.447-2.854,0.574-3.937c0,0,0.06-0.503-0.828-1.516c-1.064-1.215-3.273-1.986-5.687-1.986
		c-2.485,0-5.205,0.932-6.879,1.983c-2.078,1.34-2.724,3.004-3.024,4.71l-1.716,9.828c-0.191,1.083-1.232,1.97-2.315,1.97h-1.602
		c-1.083,0-1.814-0.887-1.624-1.97l2.909-16.65c0.188-1.084,1.231-1.969,2.313-1.969H309.345z"/>
</g>
<g>
	<path fill="#231F20" d="M81.177,24.13c0,0.65,0.023,1.182,0.05,1.182s0.479-0.307,1.013-0.683c0,0,3.208-2.271,6.705-2.271
		c2.961,0,5.43,0.716,6.969,2.179c1.252,1.188,1.155,3.07,1.155,4.453v6.588c0,0.65-0.532,1.183-1.183,1.183h-1.39
		c-0.649,0-1.183-0.533-1.183-1.183v-6.32c0-0.649,0.014-1.713,0.029-2.363c0,0,0.018-0.7-0.708-1.419
		c-0.828-0.802-2.622-1.273-4.226-1.273c-1.988,0-3.785,0.526-5.098,1.424c-1.6,1.106-1.94,2.375-1.94,3.786v6.165
		c0,0.65-0.534,1.183-1.183,1.183H78.8c-0.651,0-1.185-0.533-1.185-1.183V23.911c0-0.65,0.533-1.182,1.185-1.182h1.195
		c0.65,0,1.182,0.532,1.182,1.182V24.13z"/>
	<path fill="#231F20" d="M112.868,35.286c-2.229,0-4.312-0.692-5.379-1.775c-1.065-1.109-1.406-2.579-1.406-3.854
		c0-1.138,0.291-2.496,1.213-3.523c1.064-1.219,3.199-1.997,5.572-1.997c2.133,0,4.168,0.639,5.331,1.665
		c1.261,1.136,1.551,2.523,1.551,3.855c0,1.219-0.195,2.496-1.21,3.604C117.374,34.537,115.39,35.286,112.868,35.286z
		 M112.53,37.071c7.46,0,11.405-3.449,11.405-7.388c0-3.715-3.561-7.32-10.775-7.32c-7.413,0-11.263,3.382-11.263,7.294
		C101.897,33.373,105.169,37.071,112.53,37.071z"/>
	<path fill="#231F20" d="M131.276,22.729c0.65,0,1.184,0.532,1.184,1.182v0.903c0,0.65,0.021,1.183,0.047,1.183
		s0.401-0.399,0.831-0.886c0,0,2.459-2.779,6.426-2.779l0.222,0.007c0.648,0.026,1.182,0.512,1.182,1.08s-0.175,1.033-0.388,1.033
		c-0.212,0-0.912,0.085-1.555,0.188c0,0-3.768,0.612-5.188,2.039c-1.015,1.022-1.208,1.907-1.208,3.012v5.889
		c0,0.65-0.532,1.183-1.183,1.183h-1.39c-0.651,0-1.183-0.533-1.183-1.183V23.911c0-0.65,0.531-1.182,1.183-1.182H131.276z"/>
	<path fill="#231F20" d="M186.169,36.763c-0.651,0-1.544-0.392-1.982-0.871l-5.56-6.055c-0.44-0.479-1.245-0.579-1.787-0.221
		l-3.299,2.17c-0.543,0.357-0.985,1.183-0.985,1.832v1.96c0,0.65-0.533,1.183-1.183,1.183h-1.392c-0.65,0-1.182-0.533-1.182-1.183
		V19.047c0-0.65,0.531-1.181,1.182-1.181h1.392c0.649,0,1.183,0.53,1.183,1.181v9.729c0,0.65,0.449,0.901,1.001,0.554l9.364-5.877
		c0.55-0.346,1.531-0.628,2.182-0.628h1.7c0.65,0,0.735,0.288,0.188,0.638l-5.654,3.626c-0.547,0.351-0.626,1.022-0.178,1.491
		l7.026,7.329c0.448,0.469,0.285,0.854-0.365,0.854H186.169z"/>
	<path fill="#231F20" d="M145.7,32.74c0.811,0.253,1.93,0.958,2.681,1.347c1.491,0.773,4.332,1.15,5.148,1.15
		c2.53,0,5.764-0.525,5.764-2.319c0-1.492-2.578-1.905-4.64-2.127l-2.594-0.276c-0.711-0.075-1.87-0.252-2.572-0.395
		c0,0-5.715-1.151-5.715-3.636c0-2.904,4.555-4.128,8.914-4.128c2.382,0,4.675,0.296,6.436,1.009
		c1.392,0.565,3.029,2.014,2.593,2.466c-0.437,0.452-1.692,0.327-1.692,0.327c-0.71,0.089-1.361-0.015-1.965-0.412
		c0,0-0.642-0.513-1.383-0.842c-0.921-0.408-2.53-0.795-4.037-0.795c-2.155,0-5.061,0.498-5.061,2.043
		c0,1.518,2.156,1.85,4.265,2.043l2.173,0.226c0.714,0.072,1.877,0.198,2.589,0.276c0,0,2.22,0.244,3.669,0.824
		c1.864,0.746,2.842,1.904,2.842,3.175c0,3.167-5.228,4.309-9.866,4.309c-2.166,0-5.102-0.818-6.817-1.57
		c-1.962-0.858-2.848-1.601-2.848-1.601c-0.596-0.407-0.211-0.875,0.5-0.956C144.083,32.879,144.961,32.51,145.7,32.74z"/>
</g>
<g>
	<path fill-rule="evenodd" clip-rule="evenodd" fill="#FDC256" d="M32.438,35.639c0,3.978-3.229,7.207-7.207,7.207
		c-3.978,0-7.206-3.229-7.206-7.207s3.229-7.208,7.206-7.208C29.209,28.432,32.438,31.661,32.438,35.639L32.438,35.639z"/>
	<path fill-rule="evenodd" clip-rule="evenodd" fill="#FDC256" d="M42.226,7.207c0,3.978-3.229,7.207-7.208,7.207
		c-3.978,0-7.206-3.229-7.206-7.207S31.04,0,35.018,0C38.996,0,42.226,3.229,42.226,7.207L42.226,7.207z"/>
	<path fill-rule="evenodd" clip-rule="evenodd" fill="#FDC256" d="M41.047,53.894c0,3.979-3.229,7.207-7.207,7.207
		c-3.979,0-7.208-3.229-7.208-7.207s3.229-7.207,7.208-7.207C37.817,46.687,41.047,49.915,41.047,53.894L41.047,53.894z"/>
	<path fill-rule="evenodd" clip-rule="evenodd" fill="#FDC256" d="M14.414,49.779c0,3.979-3.229,7.208-7.206,7.208
		C3.229,56.987,0,53.758,0,49.779s3.229-7.207,7.208-7.207C11.186,42.572,14.414,45.801,14.414,49.779L14.414,49.779z"/>
	<path fill-rule="evenodd" clip-rule="evenodd" fill="#FDC256" d="M27.479,65.521c0,3.979-3.228,7.207-7.206,7.207
		s-7.207-3.229-7.207-7.207c0-3.978,3.229-7.207,7.207-7.207S27.479,61.543,27.479,65.521L27.479,65.521z"/>
</g>
</svg>
